<svg width="203" height="183" viewBox="0 0 203 183" fill="none" xmlns="http://www.w3.org/2000/svg">
<g filter="url(#filter0_d_215_48)">
<path d="M152.992 23.7055C144.03 12.518 121.193 -8.03555 80.1542 3.31266C80.0197 3.34838 79.8851 3.39302 79.7506 3.44659C76.5931 4.65195 37.9857 20.2502 34.9538 61.9645C34.9538 61.9645 29.8319 101.831 67.4077 124.697C67.5512 124.786 67.6858 124.875 67.8113 124.982C69.7758 126.563 88.1915 140.482 115.999 132.607C117.766 132.107 118.977 130.473 118.977 128.643V71.0359C118.977 68.768 117.138 66.9287 114.86 66.9109L67.3359 66.5627C64.7167 66.5448 62.7343 68.9109 63.2366 71.4734L65.2728 81.9823C65.6495 83.9109 67.3359 85.3037 69.3004 85.3305L96.9912 85.6073C99.3413 85.6341 101.207 87.5894 101.09 89.9287L100.122 110.259C99.9961 112.866 97.5025 114.723 94.9639 114.063C82.917 110.973 53.0645 99.6341 54.3651 63.3573C54.3741 63.1877 54.3831 63.027 54.41 62.8573C54.9572 59.2859 61.9359 19.4019 102.05 18.9466C102.05 18.9466 118.017 18.2144 132.988 29.8394C133.76 30.4377 134.702 30.768 135.679 30.7502L149.834 30.4198C153.288 30.3394 155.135 26.3841 152.992 23.7055Z" fill="#FFC300"/>
</g>
<g filter="url(#filter1_d_215_48)">
<path d="M145.893 39.143L79.2088 38.8126C78.3028 38.8037 77.4416 39.2323 76.9034 39.9555L66.7493 53.5269C65.341 55.4019 66.6865 58.0716 69.0456 58.0716H124.032C125.593 58.0716 126.867 59.3216 126.894 60.8751L127.934 123.902C127.97 126.098 130.392 127.429 132.276 126.286L146.673 117.572" fill="#333333"/>
</g>
<g filter="url(#filter2_d_215_48)">
<path d="M151.018 39.0739L163.239 38.9118C164.974 38.8882 166.396 40.2719 166.42 41.9989L166.607 55.5846C166.632 57.3115 165.242 58.7264 163.507 58.75L151.286 58.9121" fill="#FFC300"/>
</g>
<g filter="url(#filter3_d_215_48)">
<path d="M14.788 172.336C13.2387 172.336 11.8107 172.093 10.504 171.608C9.216 171.104 8.08667 170.395 7.116 169.48C6.164 168.565 5.41733 167.492 4.876 166.26C4.35333 165.028 4.092 163.675 4.092 162.2C4.092 160.725 4.35333 159.372 4.876 158.14C5.41733 156.908 6.17333 155.835 7.144 154.92C8.11467 154.005 9.25333 153.305 10.56 152.82C11.8667 152.316 13.304 152.064 14.872 152.064C16.608 152.064 18.1667 152.353 19.548 152.932C20.948 153.511 22.124 154.351 23.076 155.452L20.164 158.14C19.4547 157.393 18.68 156.843 17.84 156.488C17 156.115 16.0853 155.928 15.096 155.928C14.144 155.928 13.276 156.077 12.492 156.376C11.708 156.675 11.0267 157.104 10.448 157.664C9.888 158.224 9.44933 158.887 9.132 159.652C8.83333 160.417 8.684 161.267 8.684 162.2C8.684 163.115 8.83333 163.955 9.132 164.72C9.44933 165.485 9.888 166.157 10.448 166.736C11.0267 167.296 11.6987 167.725 12.464 168.024C13.248 168.323 14.1067 168.472 15.04 168.472C15.936 168.472 16.804 168.332 17.644 168.052C18.5027 167.753 19.3333 167.259 20.136 166.568L22.712 169.844C21.648 170.647 20.4067 171.263 18.988 171.692C17.588 172.121 16.188 172.336 14.788 172.336ZM18.568 169.256V161.892H22.712V169.844L18.568 169.256ZM31.1256 161.22H40.5336V164.86H31.1256V161.22ZM31.4616 172H26.9256V152.4H41.7376V156.04H31.4616V172ZM44.8084 172V152.4H48.5604L60.1244 166.512H58.3044V152.4H62.7844V172H59.0604L47.4684 157.888H49.2884V172H44.8084ZM84.7313 172.336C83.2193 172.336 81.81 172.093 80.5033 171.608C79.2153 171.104 78.0953 170.395 77.1433 169.48C76.1913 168.565 75.4447 167.492 74.9033 166.26C74.3807 165.028 74.1193 163.675 74.1193 162.2C74.1193 160.725 74.3807 159.372 74.9033 158.14C75.4447 156.908 76.1913 155.835 77.1433 154.92C78.114 154.005 79.2433 153.305 80.5313 152.82C81.8193 152.316 83.2287 152.064 84.7593 152.064C86.458 152.064 87.9887 152.363 89.3513 152.96C90.7327 153.539 91.89 154.397 92.8233 155.536L89.9113 158.224C89.2393 157.459 88.4927 156.889 87.6713 156.516C86.85 156.124 85.954 155.928 84.9833 155.928C84.0687 155.928 83.2287 156.077 82.4633 156.376C81.698 156.675 81.0353 157.104 80.4753 157.664C79.9153 158.224 79.4767 158.887 79.1593 159.652C78.8607 160.417 78.7113 161.267 78.7113 162.2C78.7113 163.133 78.8607 163.983 79.1593 164.748C79.4767 165.513 79.9153 166.176 80.4753 166.736C81.0353 167.296 81.698 167.725 82.4633 168.024C83.2287 168.323 84.0687 168.472 84.9833 168.472C85.954 168.472 86.85 168.285 87.6713 167.912C88.4927 167.52 89.2393 166.932 89.9113 166.148L92.8233 168.836C91.89 169.975 90.7327 170.843 89.3513 171.44C87.9887 172.037 86.4487 172.336 84.7313 172.336ZM92.9277 172L101.664 152.4H106.144L114.908 172H110.148L102.98 154.696H104.772L97.5757 172H92.9277ZM97.2957 167.8L98.4997 164.356H108.58L109.812 167.8H97.2957ZM116.941 172V152.4H125.425C127.18 152.4 128.692 152.689 129.961 153.268C131.231 153.828 132.211 154.64 132.901 155.704C133.592 156.768 133.937 158.037 133.937 159.512C133.937 160.968 133.592 162.228 132.901 163.292C132.211 164.356 131.231 165.177 129.961 165.756C128.692 166.316 127.18 166.596 125.425 166.596H119.461L121.477 164.552V172H116.941ZM121.477 165.056L119.461 162.9H125.173C126.573 162.9 127.619 162.601 128.309 162.004C129 161.407 129.345 160.576 129.345 159.512C129.345 158.429 129 157.589 128.309 156.992C127.619 156.395 126.573 156.096 125.173 156.096H119.461L121.477 153.94V165.056ZM137.176 172V152.4H141.712V172H137.176ZM150.423 172V156.096H144.151V152.4H161.231V156.096H154.959V172H150.423ZM160.111 172L168.847 152.4H173.327L182.091 172H177.331L170.163 154.696H171.955L164.759 172H160.111ZM164.479 167.8L165.683 164.356H175.763L176.995 167.8H164.479ZM184.125 172V152.4H188.661V168.304H198.489V172H184.125Z" fill="#333333"/>
</g>
<defs>
<filter id="filter0_d_215_48" x="30.7188" y="0" width="127.188" height="143" filterUnits="userSpaceOnUse" color-interpolation-filters="sRGB">
<feFlood flood-opacity="0" result="BackgroundImageFix"/>
<feColorMatrix in="SourceAlpha" type="matrix" values="0 0 0 0 0 0 0 0 0 0 0 0 0 0 0 0 0 0 127 0" result="hardAlpha"/>
<feOffset dy="4"/>
<feGaussianBlur stdDeviation="2"/>
<feComposite in2="hardAlpha" operator="out"/>
<feColorMatrix type="matrix" values="0 0 0 0 0 0 0 0 0 0 0 0 0 0 0 0 0 0 0.25 0"/>
<feBlend mode="normal" in2="BackgroundImageFix" result="effect1_dropShadow_215_48"/>
<feBlend mode="normal" in="SourceGraphic" in2="effect1_dropShadow_215_48" result="shape"/>
</filter>
<filter id="filter1_d_215_48" x="62.1758" y="38.8125" width="88.4961" height="95.8906" filterUnits="userSpaceOnUse" color-interpolation-filters="sRGB">
<feFlood flood-opacity="0" result="BackgroundImageFix"/>
<feColorMatrix in="SourceAlpha" type="matrix" values="0 0 0 0 0 0 0 0 0 0 0 0 0 0 0 0 0 0 127 0" result="hardAlpha"/>
<feOffset dy="4"/>
<feGaussianBlur stdDeviation="2"/>
<feComposite in2="hardAlpha" operator="out"/>
<feColorMatrix type="matrix" values="0 0 0 0 0 0 0 0 0 0 0 0 0 0 0 0 0 0 0.25 0"/>
<feBlend mode="normal" in2="BackgroundImageFix" result="effect1_dropShadow_215_48"/>
<feBlend mode="normal" in="SourceGraphic" in2="effect1_dropShadow_215_48" result="shape"/>
</filter>
<filter id="filter2_d_215_48" x="147.016" y="38.9141" width="23.5938" height="28" filterUnits="userSpaceOnUse" color-interpolation-filters="sRGB">
<feFlood flood-opacity="0" result="BackgroundImageFix"/>
<feColorMatrix in="SourceAlpha" type="matrix" values="0 0 0 0 0 0 0 0 0 0 0 0 0 0 0 0 0 0 127 0" result="hardAlpha"/>
<feOffset dy="4"/>
<feGaussianBlur stdDeviation="2"/>
<feComposite in2="hardAlpha" operator="out"/>
<feColorMatrix type="matrix" values="0 0 0 0 0 0 0 0 0 0 0 0 0 0 0 0 0 0 0.25 0"/>
<feBlend mode="normal" in2="BackgroundImageFix" result="effect1_dropShadow_215_48"/>
<feBlend mode="normal" in="SourceGraphic" in2="effect1_dropShadow_215_48" result="shape"/>
</filter>
<filter id="filter3_d_215_48" x="0.09375" y="150.062" width="202.395" height="28.2734" filterUnits="userSpaceOnUse" color-interpolation-filters="sRGB">
<feFlood flood-opacity="0" result="BackgroundImageFix"/>
<feColorMatrix in="SourceAlpha" type="matrix" values="0 0 0 0 0 0 0 0 0 0 0 0 0 0 0 0 0 0 127 0" result="hardAlpha"/>
<feOffset dy="2"/>
<feGaussianBlur stdDeviation="2"/>
<feComposite in2="hardAlpha" operator="out"/>
<feColorMatrix type="matrix" values="0 0 0 0 0 0 0 0 0 0 0 0 0 0 0 0 0 0 0.25 0"/>
<feBlend mode="normal" in2="BackgroundImageFix" result="effect1_dropShadow_215_48"/>
<feBlend mode="normal" in="SourceGraphic" in2="effect1_dropShadow_215_48" result="shape"/>
</filter>
</defs>
</svg>
